{"title":"The Butler (2013) BRRip XviD - Exclusive","uid":9375362,"size":2070413381,"categoryP":"video","categoryS":"movies","magnet":"?xt=urn:btih:ea6d78b69a102b2e5fd1700ecdb6a71356e56837&amp;dn=The+Butler+%282013%29+BRRip+XviD+-+Exclusive&amp;tr=udp%3A%2F%2Ftracker.openbittorrent.com%3A80&amp;tr=udp%3A%2F%2Fopen.demonii.com%3A1337&amp;tr=udp%3A%2F%2Ftracker.coppersurfer.tk%3A6969&amp;tr=udp%3A%2F%2Fexodus.desync.com%3A6969","seeders":5,"leechers":0,"uploader":"tykoon123","files":-1,"time":1387613849,"description":" &lt;a href=&quot;http://megaimg.com/images/75217708101099845164.jpg&quot; rel=&quot;nofollow&quot; target=&quot;_NEW&quot;&gt;http://megaimg.com/images/75217708101099845164.jpg&lt;/a&gt;\n\nInfo: &lt;a href=&quot;\nhttp://www.imdb.com/title/tt1327773/&quot; rel=&quot;nofollow&quot; target=&quot;_NEW&quot;&gt;\nhttp://www.imdb.com/title/tt1327773/&lt;/a&gt;\nsource : bluray [thnx]\nFormat : AVI\nFormat/Info : Audio Video Interleave\nFile size : 1.93 GiB\nDuration : 2h 12mn\nOverall bit rate : 2 089 Kbps\nWriting application : VirtualDubMod 1.5.10.2 (build 2540/release)\nWriting library : VirtualDubMod build 2540/release\n\nVideo\nID : 0\nFormat : MPEG-4 Visual\nFormat profile : Advanced Simple@L5\nFormat settings, BVOP : 2\nFormat settings, QPel : No\nFormat settings, GMC : No warppoints\nFormat settings, Matrix : Default (H.263)\nMuxing mode : Packed bitstream\nCodec ID : XVID\nCodec ID/Hint : XviD\nDuration : 2h 12mn\nBit rate : 1 696 Kbps\nWidth : 720 pixels\nHeight : 384 pixels\nDisplay aspect ratio : 1.875\nFrame rate : 23.976 fps\nColor space : YUV\nChroma subsampling : 4:2:0\nBit depth : 8 bits\nScan type : Progressive\nCompression mode : Lossy\nBits/(Pixel*Frame) : 0.256\nStream size : 1.56 GiB (81%)\nWriting library : XviD 64\n\nAudio\nID : 1\nFormat : AC-3\nFormat/Info : Audio Coding 3\nMode extension : CM (complete main)\nCodec ID : 2000\nDuration : 2h 12mn\nBit rate mode : Constant\nBit rate : 384 Kbps\nChannel(s) : 6 channels\nChannel positions : Front: L C R, Side: L R, LFE\nSampling rate : 48.0 KHz\nBit depth : 16 bits\nCompression mode : Lossy\nStream size : 363 MiB (18%)\nAlignment : Split accross interleaves\nInterleave, duration : 42 ms (1.00 video frame)\nInterleave, preload duration : 500 ms\n\nScreens: &lt;a href=&quot;\nhttp://megaimg.com/images/16465610843513391868.jpg&quot; rel=&quot;nofollow&quot; target=&quot;_NEW&quot;&gt;\nhttp://megaimg.com/images/16465610843513391868.jpg&lt;/a&gt;","torrent":{"xt":"urn:btih:ea6d78b69a102b2e5fd1700ecdb6a71356e56837","amp;dn":"The+Butler+%282013%29+BRRip+XviD+-+Exclusive","amp;tr":["udp%3A%2F%2Ftracker.openbittorrent.com%3A80","udp%3A%2F%2Fopen.demonii.com%3A1337","udp%3A%2F%2Ftracker.coppersurfer.tk%3A6969","udp%3A%2F%2Fexodus.desync.com%3A6969"],"infoHash":"ea6d78b69a102b2e5fd1700ecdb6a71356e56837","infoHashBuffer":{"type":"Buffer","data":[234,109,120,182,154,16,43,46,95,209,112,14,205,182,167,19,86,229,104,55]},"announce":[],"urlList":[]}}